<svg id="_x31__x2C_5" enable-background="new 0 0 24 24" height="512" viewBox="0 0 24 24" width="512" xmlns="http://www.w3.org/2000/svg"><path d="m18.465 19.25h-14.93c-.982 0-1.785-.803-1.785-1.785 0-.982.803-1.785 1.785-1.785h14.93z" fill="#fff"/><path d="m18.25 15.68v-11.93c0-1.654-1.346-3-3-3h-10.5c-1.654 0-3 1.346-3 3v11.93z" fill="#cfd8dc"/><path d="m7.75 16v7.25l2.25-2 2.25 2v-7.25z" fill="#90a4ae"/><path d="m14.377.918h.665c2.365 0 3.752.593 4.368.947.136.078.22.223.221.38l.027 4.977c.001.153-.077.295-.206.376-.357.224-1.519 1.027-1.519 1.978 0 .543 0 1.673-1.051 1.673-.704 0-1.462-.65-1.462-2.079 0-.487.083-1.395.181-1.707h-1.74c-1.164 0-2.111-.952-2.111-2.123 0-.028.109-1.738.534-2.638l-.038-.006c.165-1.013 1.081-1.778 2.131-1.778z" fill="#ffcc80"/><path d="m20.628.879h.5c.552 0 1 .448 1 1v4.5c0 .552-.448 1-1 1h-.5c-.552 0-1-.448-1-1v-4.5c0-.552.447-1 1-1z" fill="#2196f3"/><path d="m1.75 18.25c-.414 0-.75-.336-.75-.75v-14.75c0-1.517 1.233-2.75 2.75-2.75h5.5c.414 0 .75.336.75.75s-.336.75-.75.75h-5.5c-.689 0-1.25.561-1.25 1.25v14.75c0 .414-.336.75-.75.75z"/><path d="m7.5 20h-4c-1.379 0-2.5-1.122-2.5-2.5s1.121-2.5 2.5-2.5h14v-.25c0-.414.336-.75.75-.75s.75.336.75.75v1c0 .414-.336.75-.75.75h-14.75c-.552 0-1 .449-1 1s.448 1 1 1h4c.414 0 .75.336.75.75s-.336.75-.75.75z"/><path d="m12.25 24c-.18 0-.358-.065-.498-.189l-1.752-1.558-1.752 1.557c-.221.197-.537.244-.806.124-.269-.121-.442-.389-.442-.684v-7.25c0-.414.336-.75.75-.75s.75.336.75.75v5.58l1.002-.891c.283-.253.713-.253.996 0l1.002.891v-5.58c0-.414.336-.75.75-.75s.75.336.75.75v7.25c0 .295-.173.563-.442.684-.099.045-.204.066-.308.066z"/><path d="m21.25 8.02h-.5c-.965 0-1.75-.785-1.75-1.75v-4.5c0-.965.785-1.75 1.75-1.75h.5c.965 0 1.75.785 1.75 1.75v4.5c0 .965-.785 1.75-1.75 1.75zm-.5-6.5c-.136 0-.25.114-.25.25v4.5c0 .138.112.25.25.25h.5c.138 0 .25-.112.25-.25v-4.5c0-.138-.112-.25-.25-.25z"/><path d="m16.86 12c-.943 0-1.92-1.07-1.92-2.86 0-.427.053-.803.128-1.12h-1.408c-1.467 0-2.66-1.193-2.66-2.66 0-.092 0-.247.29-1.739.124-.638.208-1.073.29-1.37l-.011-.002c.208-1.271 1.36-2.229 2.681-2.229h.51c2.761 0 4.388.695 5.112 1.108.359.206.484.664.279 1.023-.206.359-.665.484-1.023.279-.48-.273-1.864-.91-4.368-.91h-.51c-.584 0-1.111.427-1.2.971-.005.028-.011.056-.019.083-.071.31-.509 2.517-.532 2.813.001.613.522 1.133 1.161 1.133h2.5c.277 0 .531.153.662.397.13.245.115.541-.039.771s-.343.551-.343 1.452c0 .897.353 1.317.48 1.368-.042-.029.139-.259.139-.908 0-1.676 1.625-2.871 2.324-3.306.353-.221.814-.111 1.033.239.219.352.111.814-.24 1.033-.78.488-1.616 1.279-1.616 2.034 0 1.658-.854 2.4-1.7 2.4z"/><path d="m18.25 20h-5.75c-.414 0-.75-.336-.75-.75s.336-.75.75-.75h5v-2.75c0-.414.336-.75.75-.75s.75.336.75.75v3.5c0 .414-.336.75-.75.75z"/></svg>